<?xml version="1.0" encoding="UTF-8" standalone="no"?>
<!-- Generator: Adobe Illustrator 16.0.0, SVG Export Plug-In . SVG Version: 6.00 Build 0)  -->

<svg
   xmlns:dc="http://purl.org/dc/elements/1.1/"
   xmlns:cc="http://creativecommons.org/ns#"
   xmlns:rdf="http://www.w3.org/1999/02/22-rdf-syntax-ns#"
   xmlns:svg="http://www.w3.org/2000/svg"
   xmlns="http://www.w3.org/2000/svg"
   xmlns:sodipodi="http://sodipodi.sourceforge.net/DTD/sodipodi-0.dtd"
   xmlns:inkscape="http://www.inkscape.org/namespaces/inkscape"
   version="1.1"
   id="Layer_1"
   x="0px"
   y="0px"
   width="566.57898"
   height="566.92999"
   viewBox="0 0 566.57897 566.93001"
   enable-background="new 0 0 733.333 727.777"
   xml:space="preserve"
   inkscape:version="0.91 r13725"
   sodipodi:docname="stayshare.svg"><metadata
     id="metadata3450"><rdf:RDF><cc:Work
         rdf:about=""><dc:format>image/svg+xml</dc:format><dc:type
           rdf:resource="http://purl.org/dc/dcmitype/StillImage" /><dc:title></dc:title></cc:Work></rdf:RDF></metadata><defs
     id="defs3448" /><sodipodi:namedview
     pagecolor="#ffffff"
     bordercolor="#666666"
     borderopacity="1"
     objecttolerance="10"
     gridtolerance="10"
     guidetolerance="10"
     inkscape:pageopacity="0"
     inkscape:pageshadow="2"
     inkscape:window-width="1920"
     inkscape:window-height="1005"
     id="namedview3446"
     showgrid="false"
     inkscape:showpageshadow="true"
     fit-margin-top="0"
     fit-margin-left="0"
     fit-margin-right="0"
     fit-margin-bottom="0"
     inkscape:zoom="1.1651921"
     inkscape:cx="283.2895"
     inkscape:cy="283.46551"
     inkscape:window-x="0"
     inkscape:window-y="24"
     inkscape:window-maximized="1"
     inkscape:current-layer="Layer_1" /><g
     id="g3414"
     transform="translate(-83.377,-80.424)"><g
       id="g3416"><path
         d="m 366.667,647.354 c 152.699,0 277.176,-120.746 283.213,-271.965 l -566.427,0 c 6.037,151.218 130.514,271.965 283.214,271.965 z"
         id="path3418"
         inkscape:connector-curvature="0"
         style="fill:#2ad18d" /></g><g
       id="g3420"><path
         d="m 366.667,80.424 c -153.373,0 -278.277,121.812 -283.29,273.964 l 566.579,0 C 644.942,202.236 520.04,80.424 366.667,80.424 Z"
         id="path3422"
         inkscape:connector-curvature="0"
         style="fill:#6acfff" /></g></g><g
     id="g3424"
     transform="translate(-83.377,-80.424)"><path
       d="m 300.413,262.902 c 0,5.547 -1.02,10.4 -3.055,14.56 -2.037,4.16 -4.919,7.627 -8.645,10.4 -3.727,2.774 -8.212,4.854 -13.455,6.24 -5.245,1.386 -11.073,2.08 -17.485,2.08 -8.407,0 -16.424,-1.192 -24.05,-3.575 -7.627,-2.383 -14.17,-5.395 -19.63,-9.035 l 13.13,-21.32 c 1.905,1.3 4.16,2.535 6.76,3.705 2.6,1.17 5.308,2.167 8.125,2.99 2.815,0.825 5.633,1.475 8.45,1.95 2.815,0.477 5.395,0.715 7.735,0.715 5.113,0 8.645,-0.585 10.595,-1.755 1.95,-1.17 2.925,-3.01 2.925,-5.525 0,-0.953 -0.282,-1.82 -0.845,-2.6 -0.565,-0.78 -1.518,-1.516 -2.86,-2.21 -1.345,-0.693 -3.142,-1.365 -5.395,-2.015 -2.254,-0.65 -5.114,-1.365 -8.58,-2.145 -6.24,-1.473 -11.658,-3.055 -16.25,-4.745 -4.595,-1.69 -8.43,-3.77 -11.505,-6.24 -3.077,-2.47 -5.375,-5.48 -6.89,-9.035 -1.518,-3.553 -2.275,-7.93 -2.275,-13.13 0,-4.853 0.975,-9.295 2.925,-13.325 1.95,-4.03 4.7,-7.475 8.255,-10.335 3.553,-2.86 7.843,-5.07 12.87,-6.63 5.025,-1.56 10.615,-2.34 16.77,-2.34 8.84,0 16.53,1.04 23.075,3.12 6.543,2.08 12.588,5.027 18.135,8.84 l -13.26,20.8 c -4.68,-3.206 -9.295,-5.46 -13.845,-6.76 -4.55,-1.3 -9.47,-1.95 -14.755,-1.95 -4.42,0 -7.433,0.695 -9.035,2.08 -1.604,1.387 -2.405,2.99 -2.405,4.81 0,1.04 0.26,1.93 0.78,2.665 0.52,0.737 1.43,1.43 2.73,2.08 1.3,0.65 3.033,1.3 5.2,1.95 2.165,0.65 4.895,1.365 8.19,2.145 6.5,1.56 12.132,3.272 16.9,5.135 4.765,1.865 8.665,4.075 11.7,6.63 3.033,2.557 5.286,5.59 6.76,9.1 1.472,3.51 2.21,7.735 2.21,12.675 z"
       id="path3426"
       inkscape:connector-curvature="0"
       style="fill:#ffffff" /><path
       d="m 335.642,293.322 c -5.547,0 -9.815,-0.865 -12.805,-2.6 -2.99,-1.732 -5.18,-3.64 -6.565,-5.72 -1.56,-2.425 -2.47,-5.2 -2.73,-8.32 l 0,-31.72 -6.11,0 0,-20.67 6.11,0 0,-21.58 26,0 0,21.58 12.74,0 0,20.67 -12.74,0 0,20.8 c 0,1.82 0.325,3.272 0.975,4.355 0.65,1.085 2.101,1.625 4.354,1.625 l 7.41,0 0,21.58 -16.639,0 z"
       id="path3428"
       inkscape:connector-curvature="0"
       style="fill:#ffffff" /><path
       d="m 394.789,222.342 c 5.46,0 10.508,0.564 15.146,1.69 4.635,1.127 8.622,3.035 11.96,5.72 3.335,2.687 5.936,6.24 7.8,10.66 1.862,4.42 2.795,9.88 2.795,16.38 l 0,36.53 -26.26,0 -0.78,-5.59 c -1.215,1.475 -2.774,2.774 -4.68,3.9 -1.647,0.955 -3.793,1.82 -6.436,2.6 -2.645,0.78 -5.829,1.17 -9.555,1.17 -3.728,0 -7.13,-0.478 -10.205,-1.43 -3.077,-0.953 -5.72,-2.36 -7.93,-4.225 -2.21,-1.862 -3.945,-4.16 -5.2,-6.89 -1.258,-2.73 -1.885,-5.828 -1.885,-9.295 0,-3.726 0.715,-7.17 2.145,-10.335 1.431,-3.163 3.38,-5.893 5.851,-8.19 2.47,-2.295 5.395,-4.072 8.774,-5.33 3.38,-1.255 7.021,-1.885 10.92,-1.885 2.773,0 5.33,0.282 7.67,0.845 2.341,0.564 4.376,1.192 6.11,1.885 1.993,0.867 3.726,1.777 5.2,2.73 l 0,-4.29 c 0,-2.86 -1.475,-4.94 -4.42,-6.24 -2.947,-1.3 -6.718,-1.95 -11.311,-1.95 -3.207,0 -6.109,0.26 -8.71,0.78 -2.6,0.52 -4.81,1.085 -6.63,1.69 -2.167,0.694 -4.074,1.475 -5.72,2.34 l -6.89,-16.77 c 2.512,-1.213 5.46,-2.295 8.84,-3.25 2.772,-0.78 6.152,-1.515 10.14,-2.21 3.987,-0.693 8.407,-1.04 13.261,-1.04 z m 11.96,48.49 c 0,-1.385 -0.347,-2.62 -1.04,-3.705 -0.694,-1.083 -1.582,-1.971 -2.665,-2.665 -1.084,-0.693 -2.34,-1.235 -3.77,-1.625 -1.43,-0.39 -2.883,-0.585 -4.355,-0.585 -3.38,0 -6.089,0.845 -8.125,2.535 -2.037,1.69 -3.055,3.75 -3.055,6.175 0,2.6 1.17,4.637 3.51,6.11 2.34,1.475 5.07,2.21 8.19,2.21 3.293,0 6,-0.78 8.125,-2.34 2.123,-1.56 3.185,-3.595 3.185,-6.11 z"
       id="path3430"
       inkscape:connector-curvature="0"
       style="fill:#ffffff" /><path
       d="m 461.089,224.292 13.521,47.45 14.43,-47.45 25.74,0 -28.08,73.97 c -1.128,3.033 -2.405,6.023 -3.835,8.97 -1.431,2.945 -3.186,5.59 -5.266,7.93 -2.079,2.34 -4.55,4.246 -7.409,5.72 -2.86,1.473 -6.285,2.21 -10.271,2.21 -5.2,0 -11.7,-1.56 -19.5,-4.68 l 7.67,-18.07 c 1.04,0.52 2.317,1.105 3.835,1.755 1.516,0.65 2.968,0.975 4.355,0.975 1.213,0 2.145,-0.175 2.795,-0.52 0.649,-0.347 1.147,-0.737 1.495,-1.17 0.345,-0.52 0.562,-1.127 0.649,-1.82 l -27.3,-75.27 27.171,0 z"
       id="path3432"
       inkscape:connector-curvature="0"
       style="fill:#ffffff" /></g><g
     id="g3434"
     transform="translate(-83.377,-80.424)"><path
       d="m 272.45,503.012 c 0,5.547 -1.02,10.399 -3.055,14.56 -2.037,4.159 -4.919,7.628 -8.645,10.399 -3.727,2.775 -8.212,4.855 -13.455,6.24 -5.245,1.386 -11.073,2.08 -17.485,2.08 -8.407,0 -16.424,-1.192 -24.05,-3.574 -7.627,-2.383 -14.17,-5.396 -19.63,-9.035 l 13.13,-21.32 c 1.905,1.3 4.16,2.535 6.76,3.705 2.6,1.17 5.308,2.167 8.125,2.99 2.815,0.824 5.633,1.475 8.45,1.949 2.815,0.478 5.395,0.715 7.735,0.715 5.113,0 8.645,-0.584 10.595,-1.754 1.95,-1.17 2.925,-3.011 2.925,-5.525 0,-0.953 -0.282,-1.82 -0.845,-2.6 -0.565,-0.781 -1.518,-1.516 -2.86,-2.211 -1.345,-0.692 -3.142,-1.365 -5.395,-2.015 -2.254,-0.649 -5.114,-1.365 -8.58,-2.146 -6.24,-1.473 -11.658,-3.055 -16.25,-4.744 -4.595,-1.69 -8.43,-3.771 -11.505,-6.24 -3.077,-2.471 -5.375,-5.48 -6.89,-9.035 -1.518,-3.553 -2.275,-7.93 -2.275,-13.13 0,-4.853 0.975,-9.295 2.925,-13.325 1.95,-4.029 4.7,-7.475 8.255,-10.335 3.553,-2.86 7.843,-5.069 12.87,-6.63 5.025,-1.561 10.615,-2.34 16.77,-2.34 8.84,0 16.53,1.039 23.075,3.119 6.543,2.08 12.588,5.027 18.135,8.841 l -13.26,20.8 c -4.68,-3.205 -9.295,-5.46 -13.845,-6.76 -4.55,-1.301 -9.47,-1.95 -14.755,-1.95 -4.42,0 -7.433,0.694 -9.035,2.08 -1.604,1.388 -2.405,2.989 -2.405,4.81 0,1.041 0.26,1.93 0.78,2.666 0.52,0.736 1.43,1.43 2.73,2.079 1.3,0.65 3.033,1.3 5.2,1.95 2.165,0.65 4.895,1.365 8.19,2.145 6.5,1.561 12.132,3.273 16.9,5.135 4.765,1.865 8.665,4.075 11.7,6.631 3.033,2.557 5.286,5.59 6.76,9.1 1.472,3.509 2.21,7.734 2.21,12.675 z"
       id="path3436"
       inkscape:connector-curvature="0"
       style="fill:#ffffff" /><path
       d="m 281.418,533.432 0,-100.621 25.87,0 0,40.561 c 1.04,-1.3 2.252,-2.6 3.64,-3.9 1.385,-1.299 2.99,-2.447 4.81,-3.444 1.82,-0.995 3.9,-1.82 6.24,-2.47 2.34,-0.65 4.94,-0.976 7.8,-0.976 4.073,0 7.365,0.63 9.88,1.886 2.513,1.257 4.485,2.882 5.915,4.875 1.431,1.994 2.383,4.225 2.86,6.694 0.476,2.47 0.715,4.875 0.715,7.215 l 0,50.181 -26.26,0 0,-38.351 c 0,-1.386 -0.088,-2.75 -0.26,-4.095 -0.175,-1.343 -0.521,-2.556 -1.04,-3.641 -0.521,-1.082 -1.28,-1.949 -2.275,-2.6 -0.997,-0.65 -2.319,-0.975 -3.965,-0.975 -1.82,0 -3.272,0.369 -4.355,1.104 -1.085,0.737 -1.885,1.67 -2.405,2.796 -0.52,1.127 -0.867,2.361 -1.04,3.704 -0.174,1.345 -0.26,2.58 -0.26,3.705 l 0,38.351 -25.87,0 z"
       id="path3438"
       inkscape:connector-curvature="0"
       style="fill:#ffffff" /><path
       d="m 390.356,462.451 c 5.46,0 10.508,0.564 15.146,1.689 4.635,1.128 8.622,3.035 11.96,5.721 3.335,2.688 5.936,6.24 7.8,10.66 1.862,4.42 2.795,9.88 2.795,16.38 l 0,36.53 -26.26,0 -0.78,-5.59 c -1.215,1.475 -2.774,2.773 -4.68,3.899 -1.647,0.954 -3.793,1.819 -6.436,2.601 -2.645,0.779 -5.829,1.17 -9.555,1.17 -3.728,0 -7.13,-0.479 -10.205,-1.431 -3.077,-0.952 -5.72,-2.36 -7.93,-4.226 -2.21,-1.861 -3.945,-4.159 -5.2,-6.889 -1.258,-2.73 -1.885,-5.828 -1.885,-9.295 0,-3.727 0.715,-7.171 2.145,-10.336 1.431,-3.162 3.38,-5.893 5.851,-8.189 2.47,-2.295 5.395,-4.072 8.774,-5.33 3.38,-1.256 7.021,-1.885 10.92,-1.885 2.773,0 5.33,0.281 7.67,0.845 2.341,0.564 4.376,1.192 6.11,1.885 1.993,0.867 3.726,1.777 5.2,2.729 l 0,-4.289 c 0,-2.86 -1.475,-4.94 -4.42,-6.24 -2.947,-1.301 -6.718,-1.95 -11.311,-1.95 -3.207,0 -6.109,0.261 -8.71,0.78 -2.6,0.52 -4.81,1.084 -6.63,1.689 -2.167,0.695 -4.074,1.475 -5.72,2.34 l -6.89,-16.77 c 2.512,-1.213 5.46,-2.295 8.84,-3.25 2.772,-0.779 6.152,-1.516 10.14,-2.21 3.987,-0.69 8.407,-1.038 13.261,-1.038 z m 11.96,48.49 c 0,-1.386 -0.347,-2.621 -1.04,-3.705 -0.694,-1.083 -1.582,-1.971 -2.665,-2.665 -1.084,-0.692 -2.34,-1.235 -3.77,-1.625 -1.43,-0.39 -2.883,-0.585 -4.355,-0.585 -3.38,0 -6.089,0.845 -8.125,2.535 -2.037,1.689 -3.055,3.75 -3.055,6.175 0,2.601 1.17,4.638 3.51,6.11 2.34,1.475 5.07,2.209 8.19,2.209 3.293,0 6,-0.779 8.125,-2.34 2.123,-1.559 3.185,-3.594 3.185,-6.109 z"
       id="path3440"
       inkscape:connector-curvature="0"
       style="fill:#ffffff" /><path
       d="m 437.937,464.401 25.09,0 0,15.079 0.52,0 c 0.346,-3.119 1.431,-5.935 3.25,-8.449 1.561,-2.166 4.03,-4.138 7.41,-5.915 3.38,-1.775 8.19,-2.665 14.43,-2.665 l 0,28.99 c -1.475,0 -3.597,0.109 -6.37,0.324 -2.774,0.218 -5.524,0.998 -8.255,2.34 -2.729,1.346 -5.114,3.469 -7.149,6.371 -2.037,2.904 -3.056,7 -3.056,12.285 l 0,20.67 -25.869,0 0,-69.03 z"
       id="path3442"
       inkscape:connector-curvature="0"
       style="fill:#ffffff" /><path
       d="m 565.207,519.001 c -1.647,3.12 -3.9,5.896 -6.761,8.32 -2.515,2.08 -5.829,3.965 -9.944,5.655 -4.117,1.689 -9.295,2.535 -15.535,2.535 -5.808,0 -11.16,-0.867 -16.055,-2.601 -4.897,-1.732 -9.146,-4.16 -12.74,-7.28 -3.598,-3.119 -6.415,-6.91 -8.45,-11.375 -2.037,-4.463 -3.055,-9.425 -3.055,-14.885 0,-5.285 0.952,-10.205 2.859,-14.755 1.905,-4.55 4.551,-8.45 7.931,-11.7 3.38,-3.25 7.41,-5.805 12.09,-7.67 4.68,-1.863 9.793,-2.795 15.34,-2.795 5.2,0 10.03,0.846 14.495,2.535 4.463,1.689 8.362,4.14 11.7,7.345 3.335,3.208 5.935,7.13 7.8,11.765 1.862,4.638 2.795,9.902 2.795,15.795 l 0,3.25 -47.97,0 c 0,0.867 0.237,1.973 0.715,3.315 0.476,1.345 1.277,2.646 2.405,3.899 1.125,1.258 2.555,2.341 4.29,3.25 1.732,0.91 3.899,1.365 6.5,1.365 2.252,0 4.225,-0.345 5.915,-1.039 1.689,-0.693 3.055,-1.473 4.095,-2.34 1.213,-0.953 2.253,-2.08 3.12,-3.381 l 18.46,10.792 z m -34.45,-37.18 c -2.167,0 -3.965,0.347 -5.396,1.04 -1.43,0.694 -2.579,1.604 -3.444,2.73 -0.867,1.127 -1.475,2.34 -1.82,3.639 -0.348,1.301 -0.52,2.601 -0.52,3.9 l 22.619,0 c 0,-1.3 -0.217,-2.6 -0.649,-3.9 -0.435,-1.299 -1.105,-2.512 -2.015,-3.639 -0.91,-1.126 -2.08,-2.036 -3.511,-2.73 -1.429,-0.693 -3.184,-1.04 -5.264,-1.04 z"
       id="path3444"
       inkscape:connector-curvature="0"
       style="fill:#ffffff" /></g></svg>