<?xml version="1.0" encoding="UTF-8" standalone="no"?>
<!-- Generator: Adobe Illustrator 16.0.0, SVG Export Plug-In . SVG Version: 6.00 Build 0)  -->

<svg
   xmlns:dc="http://purl.org/dc/elements/1.1/"
   xmlns:cc="http://creativecommons.org/ns#"
   xmlns:rdf="http://www.w3.org/1999/02/22-rdf-syntax-ns#"
   xmlns:svg="http://www.w3.org/2000/svg"
   xmlns="http://www.w3.org/2000/svg"
   xmlns:sodipodi="http://sodipodi.sourceforge.net/DTD/sodipodi-0.dtd"
   xmlns:inkscape="http://www.inkscape.org/namespaces/inkscape"
   version="1.1"
   id="Layer_1"
   x="0px"
   y="0px"
   width="566.92999"
   height="566.92999"
   viewBox="0 0 566.92999 566.93001"
   enable-background="new 0 0 733.333 727.777"
   xml:space="preserve"
   inkscape:version="0.91 r13725"
   sodipodi:docname="stay.svg"><metadata
     id="metadata19"><rdf:RDF><cc:Work
         rdf:about=""><dc:format>image/svg+xml</dc:format><dc:type
           rdf:resource="http://purl.org/dc/dcmitype/StillImage" /><dc:title></dc:title></cc:Work></rdf:RDF></metadata><defs
     id="defs17" /><sodipodi:namedview
     pagecolor="#ffffff"
     bordercolor="#666666"
     borderopacity="1"
     objecttolerance="10"
     gridtolerance="10"
     guidetolerance="10"
     inkscape:pageopacity="0"
     inkscape:pageshadow="2"
     inkscape:window-width="695"
     inkscape:window-height="480"
     id="namedview15"
     showgrid="false"
     fit-margin-top="0"
     fit-margin-left="0"
     fit-margin-right="0"
     fit-margin-bottom="0"
     inkscape:zoom="0.32427517"
     inkscape:cx="283.46451"
     inkscape:cy="283.46451"
     inkscape:window-x="0"
     inkscape:window-y="24"
     inkscape:window-maximized="0"
     inkscape:current-layer="Layer_1" /><circle
     cx="283.465"
     cy="283.465"
     r="283.465"
     id="circle3"
     style="fill:#6acfff" /><g
     id="g5"
     transform="translate(-83.201996,-80.423004)"><path
       d="m 285.155,371.306 c 0,6.572 -1.208,12.32 -3.619,17.248 -2.414,4.929 -5.828,9.036 -10.241,12.32 -4.416,3.286 -9.729,5.751 -15.939,7.392 -6.213,1.641 -13.116,2.465 -20.713,2.465 -9.959,0 -19.457,-1.413 -28.49,-4.236 -9.036,-2.822 -16.786,-6.391 -23.254,-10.702 l 15.554,-25.256 c 2.257,1.54 4.928,3.003 8.008,4.389 3.08,1.386 6.287,2.567 9.625,3.542 3.335,0.977 6.672,1.747 10.01,2.31 3.335,0.565 6.391,0.847 9.163,0.847 6.057,0 10.241,-0.693 12.551,-2.079 2.31,-1.386 3.465,-3.566 3.465,-6.545 0,-1.129 -0.334,-2.156 -1.001,-3.08 -0.669,-0.924 -1.798,-1.795 -3.388,-2.618 -1.593,-0.82 -3.723,-1.617 -6.391,-2.387 -2.671,-0.77 -6.059,-1.617 -10.164,-2.541 -7.392,-1.745 -13.81,-3.619 -19.25,-5.621 -5.443,-2.002 -9.986,-4.466 -13.629,-7.392 -3.646,-2.926 -6.367,-6.492 -8.162,-10.703 -1.797,-4.208 -2.695,-9.394 -2.695,-15.554 0,-5.749 1.155,-11.011 3.465,-15.785 2.31,-4.774 5.568,-8.855 9.779,-12.243 4.208,-3.388 9.291,-6.006 15.246,-7.854 5.953,-1.848 12.575,-2.772 19.866,-2.772 10.472,0 19.582,1.232 27.335,3.696 7.75,2.464 14.912,5.955 21.483,10.472 l -15.708,24.64 c -5.544,-3.797 -11.011,-6.468 -16.401,-8.008 -5.39,-1.54 -11.218,-2.31 -17.479,-2.31 -5.236,0 -8.804,0.823 -10.703,2.464 -1.901,1.644 -2.849,3.542 -2.849,5.698 0,1.232 0.308,2.286 0.924,3.157 0.616,0.874 1.694,1.694 3.234,2.464 1.54,0.77 3.593,1.54 6.16,2.31 2.565,0.77 5.799,1.617 9.702,2.541 7.7,1.848 14.372,3.876 20.02,6.083 5.645,2.209 10.265,4.827 13.86,7.854 3.592,3.029 6.261,6.622 8.008,10.78 1.744,4.157 2.618,9.162 2.618,15.014 z"
       id="path7"
       inkscape:connector-curvature="0"
       style="fill:#ffffff" /><path
       d="m 326.888,407.342 c -6.572,0 -11.627,-1.025 -15.17,-3.08 -3.542,-2.053 -6.135,-4.312 -7.776,-6.775 -1.848,-2.873 -2.926,-6.16 -3.234,-9.856 l 0,-37.576 -7.238,0 0,-24.486 7.238,0 0,-25.564 30.8,0 0,25.564 15.092,0 0,24.486 -15.092,0 0,24.64 c 0,2.156 0.385,3.876 1.156,5.159 0.77,1.285 2.486,1.925 5.158,1.925 l 8.777,0 0,25.564 -19.711,0 z"
       id="path9"
       inkscape:connector-curvature="0"
       style="fill:#ffffff" /><path
       d="m 396.955,323.258 c 6.468,0 12.447,0.669 17.94,2.002 5.491,1.335 10.215,3.595 14.168,6.776 3.951,3.184 7.031,7.392 9.24,12.628 2.206,5.236 3.311,11.704 3.311,19.404 l 0,43.274 -31.107,0 -0.924,-6.622 c -1.439,1.747 -3.287,3.287 -5.544,4.62 -1.952,1.131 -4.493,2.156 -7.623,3.08 -3.133,0.924 -6.906,1.386 -11.319,1.386 -4.415,0 -8.446,-0.565 -12.089,-1.694 -3.646,-1.128 -6.776,-2.795 -9.395,-5.004 -2.617,-2.207 -4.673,-4.929 -6.159,-8.162 -1.49,-3.234 -2.233,-6.904 -2.233,-11.012 0,-4.413 0.847,-8.494 2.541,-12.243 1.694,-3.747 4.004,-6.98 6.93,-9.702 2.927,-2.719 6.392,-4.825 10.396,-6.314 4.004,-1.487 8.315,-2.233 12.936,-2.233 3.285,0 6.314,0.334 9.086,1.001 2.772,0.669 5.184,1.413 7.238,2.233 2.36,1.027 4.413,2.105 6.16,3.234 l 0,-5.082 c 0,-3.388 -1.747,-5.852 -5.236,-7.392 -3.491,-1.54 -7.957,-2.31 -13.397,-2.31 -3.8,0 -7.238,0.308 -10.318,0.924 -3.08,0.616 -5.698,1.285 -7.854,2.002 -2.568,0.823 -4.827,1.747 -6.776,2.772 l -8.162,-19.866 c 2.977,-1.437 6.468,-2.719 10.472,-3.85 3.285,-0.924 7.289,-1.795 12.013,-2.618 4.718,-0.821 9.954,-1.232 15.705,-1.232 z m 14.168,57.442 c 0,-1.641 -0.412,-3.104 -1.232,-4.389 -0.823,-1.283 -1.874,-2.334 -3.157,-3.157 -1.284,-0.82 -2.771,-1.463 -4.466,-1.925 -1.694,-0.462 -3.414,-0.693 -5.159,-0.693 -4.004,0 -7.214,1.001 -9.625,3.003 -2.413,2.002 -3.619,4.442 -3.619,7.315 0,3.08 1.387,5.493 4.158,7.238 2.772,1.747 6.006,2.618 9.702,2.618 3.9,0 7.108,-0.924 9.625,-2.772 2.514,-1.848 3.773,-4.259 3.773,-7.238 z"
       id="path11"
       inkscape:connector-curvature="0"
       style="fill:#ffffff" /><path
       d="m 475.494,325.568 16.017,56.21 17.094,-56.21 30.492,0 -33.265,87.625 c -1.335,3.593 -2.849,7.135 -4.543,10.627 -1.693,3.488 -3.772,6.621 -6.236,9.394 -2.465,2.772 -5.391,5.028 -8.778,6.776 -3.388,1.744 -7.445,2.617 -12.166,2.617 -6.16,0 -13.86,-1.848 -23.101,-5.543 l 9.087,-21.406 c 1.231,0.615 2.745,1.309 4.543,2.078 1.795,0.771 3.515,1.155 5.158,1.155 1.437,0 2.541,-0.206 3.312,-0.616 0.77,-0.411 1.359,-0.873 1.771,-1.386 0.409,-0.616 0.667,-1.335 0.771,-2.155 l -32.34,-89.167 32.184,0 z"
       id="path13"
       inkscape:connector-curvature="0"
       style="fill:#ffffff" /></g></svg>