<?xml version="1.0" encoding="UTF-8" standalone="no"?>
<!-- Generator: Adobe Illustrator 16.0.0, SVG Export Plug-In . SVG Version: 6.00 Build 0)  -->

<svg
   xmlns:dc="http://purl.org/dc/elements/1.1/"
   xmlns:cc="http://creativecommons.org/ns#"
   xmlns:rdf="http://www.w3.org/1999/02/22-rdf-syntax-ns#"
   xmlns:svg="http://www.w3.org/2000/svg"
   xmlns="http://www.w3.org/2000/svg"
   xmlns:sodipodi="http://sodipodi.sourceforge.net/DTD/sodipodi-0.dtd"
   xmlns:inkscape="http://www.inkscape.org/namespaces/inkscape"
   version="1.1"
   id="Layer_1"
   x="0px"
   y="0px"
   width="566.92902"
   height="567.841"
   viewBox="0 0 566.92901 567.84102"
   enable-background="new 0 0 733.333 727.777"
   xml:space="preserve"
   inkscape:version="0.91 r13725"
   sodipodi:docname="stayshareplay.svg"><metadata
     id="metadata53"><rdf:RDF><cc:Work
         rdf:about=""><dc:format>image/svg+xml</dc:format><dc:type
           rdf:resource="http://purl.org/dc/dcmitype/StillImage" /><dc:title></dc:title></cc:Work></rdf:RDF></metadata><defs
     id="defs51" /><sodipodi:namedview
     pagecolor="#ffffff"
     bordercolor="#666666"
     borderopacity="1"
     objecttolerance="10"
     gridtolerance="10"
     guidetolerance="10"
     inkscape:pageopacity="0"
     inkscape:pageshadow="2"
     inkscape:window-width="697"
     inkscape:window-height="480"
     id="namedview49"
     showgrid="false"
     fit-margin-top="0"
     fit-margin-left="0"
     fit-margin-right="0"
     fit-margin-bottom="0"
     inkscape:zoom="0.32427517"
     inkscape:cx="283.4635"
     inkscape:cy="283.92051"
     inkscape:window-x="0"
     inkscape:window-y="24"
     inkscape:window-maximized="0"
     inkscape:current-layer="Layer_1" /><g
     id="g3"
     transform="translate(-83.203,-79.968)"><g
       id="g5"><path
         d="m 125.125,512.752 c 49.892,81.029 139.403,135.057 241.542,135.057 100.564,0 188.877,-52.381 239.195,-131.338 L 363.147,375.476 125.125,512.752 Z"
         id="path7"
         inkscape:connector-curvature="0"
         style="fill:#2ad18d" /></g><g
       id="g9"><path
         d="M 352.667,80.265 C 202.622,87.567 83.203,211.488 83.203,363.344 c 0,47.222 11.561,91.738 31.986,130.896 l 237.478,-136.961 0,-277.014 z"
         id="path11"
         inkscape:connector-curvature="0"
         style="fill:#6acfff" /></g><g
       id="g13"><path
         d="m 616.077,498.119 c 21.711,-40.086 34.055,-85.986 34.055,-134.775 0,-154.214 -123.146,-279.66 -276.465,-283.376 l 0,277.333 242.41,140.818 z"
         id="path15"
         inkscape:connector-curvature="0"
         style="fill:#ffa37b" /></g></g><g
     id="g17"
     transform="translate(-83.203,-79.968)"><path
       d="m 179.669,306.681 c 0,4.009 -0.737,7.516 -2.208,10.521 -1.472,3.006 -3.555,5.512 -6.247,7.515 -2.693,2.005 -5.935,3.508 -9.723,4.509 -3.79,1.001 -8.001,1.503 -12.635,1.503 -6.075,0 -11.868,-0.861 -17.378,-2.583 -5.511,-1.722 -10.239,-3.898 -14.185,-6.528 l 9.488,-15.406 c 1.377,0.939 3.006,1.832 4.885,2.678 1.879,0.846 3.835,1.566 5.871,2.16 2.034,0.596 4.07,1.065 6.106,1.409 2.034,0.345 3.898,0.517 5.589,0.517 3.694,0 6.247,-0.423 7.656,-1.268 1.409,-0.846 2.114,-2.176 2.114,-3.993 0,-0.688 -0.204,-1.314 -0.611,-1.878 -0.408,-0.564 -1.096,-1.096 -2.066,-1.598 -0.972,-0.5 -2.271,-0.986 -3.898,-1.456 -1.629,-0.47 -3.696,-0.986 -6.2,-1.55 -4.509,-1.063 -8.424,-2.207 -11.742,-3.429 -3.32,-1.221 -6.091,-2.724 -8.313,-4.509 -2.224,-1.785 -3.884,-3.96 -4.979,-6.528 -1.096,-2.567 -1.644,-5.73 -1.644,-9.488 0,-3.506 0.704,-6.717 2.113,-9.628 1.409,-2.912 3.396,-5.402 5.965,-7.469 2.567,-2.066 5.667,-3.663 9.3,-4.791 3.631,-1.127 7.67,-1.69 12.118,-1.69 6.388,0 11.945,0.752 16.674,2.255 4.728,1.503 9.096,3.633 13.104,6.388 l -9.582,15.029 c -3.382,-2.315 -6.717,-3.945 -10.004,-4.885 -3.288,-0.938 -6.843,-1.408 -10.662,-1.408 -3.194,0 -5.371,0.502 -6.529,1.503 -1.159,1.002 -1.738,2.16 -1.738,3.476 0,0.751 0.188,1.395 0.564,1.926 0.375,0.532 1.033,1.033 1.973,1.503 0.94,0.47 2.191,0.939 3.757,1.409 1.565,0.47 3.538,0.986 5.918,1.55 4.697,1.127 8.767,2.364 12.212,3.71 3.443,1.348 6.262,2.944 8.455,4.791 2.191,1.848 3.819,4.039 4.885,6.576 1.065,2.535 1.597,5.587 1.597,9.157 z"
       id="path19"
       inkscape:connector-curvature="0"
       style="fill:#ffffff" /><path
       d="m 205.125,328.662 c -4.008,0 -7.092,-0.625 -9.253,-1.879 -2.16,-1.252 -3.743,-2.63 -4.744,-4.133 -1.127,-1.753 -1.785,-3.758 -1.973,-6.012 l 0,-22.921 -4.415,0 0,-14.937 4.415,0 0,-15.594 18.788,0 0,15.594 9.206,0 0,14.937 -9.206,0 0,15.03 c 0,1.314 0.235,2.364 0.705,3.146 0.469,0.784 1.518,1.174 3.146,1.174 l 5.354,0 0,15.594 -12.023,0 z"
       id="path21"
       inkscape:connector-curvature="0"
       style="fill:#ffffff" /><path
       d="m 247.865,277.372 c 3.946,0 7.593,0.408 10.944,1.222 3.35,0.814 6.23,2.192 8.642,4.133 2.41,1.942 4.289,4.51 5.637,7.703 1.346,3.194 2.02,7.14 2.02,11.836 l 0,26.396 -18.976,0 -0.563,-4.039 c -0.878,1.065 -2.005,2.005 -3.382,2.818 -1.19,0.689 -2.74,1.314 -4.649,1.879 -1.911,0.563 -4.213,0.845 -6.905,0.845 -2.693,0 -5.152,-0.345 -7.374,-1.033 -2.224,-0.688 -4.133,-1.705 -5.73,-3.053 -1.597,-1.346 -2.851,-3.006 -3.758,-4.979 -0.908,-1.973 -1.362,-4.211 -1.362,-6.717 0,-2.691 0.517,-5.182 1.55,-7.468 1.033,-2.285 2.442,-4.258 4.227,-5.918 1.785,-1.659 3.898,-2.943 6.341,-3.852 2.442,-0.907 5.073,-1.362 7.891,-1.362 2.003,0 3.851,0.204 5.542,0.61 1.69,0.408 3.161,0.862 4.415,1.362 1.439,0.627 2.691,1.284 3.757,1.973 l 0,-3.1 c 0,-2.066 -1.065,-3.57 -3.193,-4.509 -2.13,-0.939 -4.854,-1.409 -8.173,-1.409 -2.317,0 -4.415,0.188 -6.293,0.563 -1.879,0.376 -3.476,0.783 -4.791,1.221 -1.566,0.502 -2.944,1.065 -4.133,1.691 l -4.979,-12.118 c 1.815,-0.876 3.945,-1.658 6.388,-2.349 2.003,-0.563 4.446,-1.095 7.327,-1.597 2.879,-0.498 6.073,-0.749 9.58,-0.749 z m 8.643,35.039 c 0,-1.001 -0.251,-1.894 -0.751,-2.677 -0.502,-0.783 -1.144,-1.424 -1.926,-1.926 -0.784,-0.501 -1.691,-0.893 -2.725,-1.175 -1.033,-0.281 -2.083,-0.423 -3.146,-0.423 -2.443,0 -4.401,0.611 -5.872,1.832 -1.472,1.222 -2.208,2.71 -2.208,4.462 0,1.879 0.846,3.352 2.537,4.415 1.691,1.065 3.664,1.598 5.917,1.598 2.38,0 4.336,-0.564 5.871,-1.691 1.535,-1.127 2.303,-2.597 2.303,-4.415 z"
       id="path23"
       inkscape:connector-curvature="0"
       style="fill:#ffffff" /><path
       d="m 295.773,278.781 9.77,34.287 10.428,-34.287 18.6,0 -20.291,53.451 c -0.814,2.191 -1.737,4.352 -2.771,6.481 -1.033,2.128 -2.301,4.039 -3.804,5.73 -1.503,1.69 -3.288,3.067 -5.354,4.133 -2.066,1.064 -4.542,1.597 -7.421,1.597 -3.758,0 -8.455,-1.127 -14.091,-3.382 l 5.542,-13.057 c 0.752,0.375 1.675,0.798 2.771,1.268 1.095,0.47 2.145,0.705 3.146,0.705 0.877,0 1.55,-0.127 2.02,-0.376 0.47,-0.251 0.83,-0.533 1.081,-0.846 0.249,-0.376 0.406,-0.814 0.47,-1.315 l -19.728,-54.39 19.632,0 z"
       id="path25"
       inkscape:connector-curvature="0"
       style="fill:#ffffff" /></g><g
     id="g27"
     transform="translate(-83.203,-79.968)"><path
       d="m 442.431,255.955 c 3.57,0 7.201,0.282 10.897,0.846 3.694,0.563 7.045,1.69 10.052,3.382 3.006,1.69 5.463,4.071 7.373,7.139 1.91,3.069 2.865,7.108 2.865,12.118 0,4.385 -0.752,8.032 -2.254,10.944 -1.504,2.911 -3.508,5.229 -6.012,6.951 -2.506,1.723 -5.34,2.944 -8.502,3.663 -3.163,0.721 -6.435,1.08 -9.816,1.08 l -11.367,0 0,26.585 -20.478,0 0,-72.708 27.242,0 z m 10.521,23.578 c 0,-1.69 -0.314,-3.067 -0.939,-4.133 -0.627,-1.064 -1.456,-1.926 -2.489,-2.583 -1.033,-0.658 -2.255,-1.111 -3.663,-1.362 -1.41,-0.25 -2.898,-0.376 -4.463,-0.376 l -5.73,0 0,16.439 5.824,0 c 1.504,0 2.943,-0.095 4.322,-0.282 1.376,-0.188 2.598,-0.563 3.663,-1.127 1.063,-0.563 1.909,-1.377 2.536,-2.442 0.625,-1.064 0.939,-2.442 0.939,-4.134 z"
       id="path29"
       inkscape:connector-curvature="0"
       style="fill:#ffffff" /><path
       d="m 478.032,328.663 0,-72.708 18.693,0 0,72.708 -18.693,0 z"
       id="path31"
       inkscape:connector-curvature="0"
       style="fill:#ffffff" /><path
       d="m 527.913,277.373 c 3.945,0 7.593,0.408 10.943,1.221 3.35,0.815 6.23,2.193 8.643,4.134 2.41,1.941 4.289,4.509 5.637,7.703 1.346,3.193 2.02,7.139 2.02,11.836 l 0,26.396 -18.976,0 -0.563,-4.04 c -0.878,1.066 -2.006,2.006 -3.382,2.818 -1.19,0.69 -2.741,1.315 -4.649,1.879 -1.912,0.563 -4.213,0.846 -6.905,0.846 -2.693,0 -5.151,-0.345 -7.374,-1.033 -2.224,-0.688 -4.133,-1.706 -5.73,-3.054 -1.597,-1.346 -2.85,-3.006 -3.758,-4.979 -0.908,-1.973 -1.361,-4.211 -1.361,-6.716 0,-2.692 0.517,-5.182 1.55,-7.469 1.033,-2.285 2.442,-4.258 4.228,-5.918 1.785,-1.658 3.898,-2.942 6.34,-3.852 2.443,-0.907 5.073,-1.361 7.892,-1.361 2.003,0 3.851,0.203 5.542,0.61 1.691,0.408 3.162,0.861 4.415,1.362 1.44,0.626 2.692,1.284 3.758,1.973 l 0,-3.101 c 0,-2.066 -1.065,-3.569 -3.194,-4.509 -2.129,-0.94 -4.854,-1.409 -8.172,-1.409 -2.318,0 -4.416,0.188 -6.294,0.563 -1.879,0.376 -3.476,0.784 -4.791,1.222 -1.565,0.502 -2.944,1.065 -4.134,1.69 l -4.979,-12.117 c 1.816,-0.877 3.945,-1.659 6.389,-2.349 2.003,-0.563 4.445,-1.096 7.326,-1.598 2.878,-0.497 6.071,-0.748 9.579,-0.748 z m 8.643,35.039 c 0,-1.002 -0.252,-1.894 -0.752,-2.678 -0.502,-0.782 -1.144,-1.424 -1.926,-1.926 -0.783,-0.5 -1.691,-0.893 -2.725,-1.174 -1.033,-0.282 -2.082,-0.423 -3.146,-0.423 -2.442,0 -4.4,0.61 -5.871,1.832 -1.473,1.221 -2.207,2.709 -2.207,4.462 0,1.879 0.846,3.351 2.536,4.415 1.69,1.065 3.663,1.597 5.918,1.597 2.38,0 4.336,-0.563 5.871,-1.69 1.534,-1.128 2.302,-2.598 2.302,-4.415 z"
       id="path33"
       inkscape:connector-curvature="0"
       style="fill:#ffffff" /><path
       d="m 575.819,278.782 9.77,34.287 10.428,-34.287 18.6,0 -20.291,53.45 c -0.814,2.191 -1.736,4.352 -2.771,6.481 -1.033,2.129 -2.301,4.04 -3.803,5.73 -1.504,1.69 -3.289,3.067 -5.355,4.133 -2.066,1.064 -4.541,1.598 -7.42,1.598 -3.758,0 -8.455,-1.128 -14.092,-3.382 l 5.543,-13.058 c 0.752,0.376 1.674,0.799 2.771,1.269 1.094,0.47 2.145,0.704 3.146,0.704 0.877,0 1.549,-0.126 2.02,-0.376 0.469,-0.251 0.83,-0.532 1.08,-0.845 0.25,-0.376 0.406,-0.815 0.471,-1.315 l -19.729,-54.39 19.632,0 z"
       id="path35"
       inkscape:connector-curvature="0"
       style="fill:#ffffff" /></g><g
     id="g37"
     transform="translate(-83.203,-79.968)"><path
       d="m 289.12,531.23 c 0,4.008 -0.737,7.515 -2.208,10.521 -1.472,3.006 -3.555,5.512 -6.247,7.515 -2.693,2.006 -5.935,3.508 -9.723,4.51 -3.79,1 -8.001,1.502 -12.635,1.502 -6.075,0 -11.868,-0.861 -17.378,-2.582 -5.511,-1.723 -10.239,-3.898 -14.185,-6.529 l 9.488,-15.406 c 1.377,0.939 3.006,1.832 4.885,2.678 1.879,0.846 3.835,1.566 5.871,2.16 2.034,0.596 4.07,1.066 6.106,1.41 2.034,0.344 3.898,0.516 5.589,0.516 3.694,0 6.247,-0.422 7.656,-1.268 1.409,-0.846 2.114,-2.176 2.114,-3.992 0,-0.688 -0.204,-1.315 -0.611,-1.879 -0.408,-0.564 -1.096,-1.096 -2.066,-1.598 -0.972,-0.5 -2.271,-0.986 -3.898,-1.455 -1.629,-0.471 -3.696,-0.986 -6.2,-1.551 -4.509,-1.063 -8.424,-2.207 -11.742,-3.428 -3.32,-1.222 -6.091,-2.725 -8.313,-4.51 -2.224,-1.785 -3.884,-3.96 -4.979,-6.528 -1.096,-2.567 -1.644,-5.73 -1.644,-9.487 0,-3.507 0.704,-6.717 2.113,-9.629 1.409,-2.912 3.396,-5.402 5.965,-7.469 2.567,-2.066 5.667,-3.663 9.3,-4.791 3.631,-1.127 7.67,-1.689 12.118,-1.689 6.388,0 11.945,0.751 16.674,2.254 4.728,1.503 9.096,3.633 13.104,6.388 l -9.582,15.03 c -3.382,-2.316 -6.717,-3.945 -10.004,-4.885 -3.288,-0.939 -6.843,-1.409 -10.662,-1.409 -3.194,0 -5.371,0.502 -6.529,1.503 -1.159,1.002 -1.738,2.16 -1.738,3.476 0,0.751 0.188,1.395 0.564,1.926 0.375,0.532 1.033,1.033 1.973,1.503 0.94,0.47 2.191,0.939 3.757,1.409 1.565,0.47 3.538,0.986 5.918,1.55 4.697,1.127 8.767,2.365 12.212,3.711 3.443,1.348 6.262,2.943 8.455,4.791 2.191,1.848 3.819,4.039 4.885,6.575 1.064,2.534 1.597,5.587 1.597,9.157 z"
       id="path39"
       inkscape:connector-curvature="0"
       style="fill:#ffffff" /><path
       d="m 295.601,553.211 0,-72.707 18.693,0 0,29.309 c 0.751,-0.939 1.628,-1.879 2.63,-2.818 1.001,-0.939 2.161,-1.769 3.476,-2.489 1.315,-0.72 2.818,-1.315 4.509,-1.784 1.691,-0.471 3.57,-0.705 5.636,-0.705 2.943,0 5.322,0.455 7.14,1.361 1.815,0.909 3.241,2.084 4.274,3.523 1.033,1.441 1.722,3.053 2.067,4.838 0.343,1.785 0.517,3.522 0.517,5.213 l 0,36.26 -18.976,0 0,-27.712 c 0,-1.001 -0.063,-1.987 -0.188,-2.959 -0.126,-0.971 -0.375,-1.847 -0.751,-2.631 -0.375,-0.781 -0.925,-1.408 -1.644,-1.879 -0.721,-0.469 -1.676,-0.704 -2.865,-0.704 -1.315,0 -2.365,0.267 -3.147,0.799 -0.784,0.532 -1.362,1.206 -1.738,2.02 -0.376,0.814 -0.627,1.707 -0.751,2.677 -0.126,0.973 -0.188,1.864 -0.188,2.678 l 0,27.711 -18.694,0 z"
       id="path41"
       inkscape:connector-curvature="0"
       style="fill:#ffffff" /><path
       d="m 374.319,501.922 c 3.945,0 7.592,0.408 10.943,1.221 3.35,0.814 6.23,2.193 8.643,4.133 2.41,1.942 4.289,4.51 5.637,7.703 1.346,3.194 2.02,7.14 2.02,11.836 l 0,26.396 -18.977,0 -0.562,-4.039 c -0.879,1.066 -2.006,2.006 -3.383,2.818 -1.189,0.689 -2.74,1.314 -4.648,1.879 -1.912,0.563 -4.213,0.846 -6.904,0.846 -2.694,0 -5.153,-0.346 -7.375,-1.033 -2.224,-0.689 -4.134,-1.706 -5.73,-3.054 -1.597,-1.346 -2.851,-3.006 -3.758,-4.979 -0.908,-1.973 -1.362,-4.211 -1.362,-6.716 0,-2.692 0.517,-5.182 1.55,-7.469 1.033,-2.285 2.442,-4.258 4.227,-5.918 1.785,-1.658 3.898,-2.943 6.341,-3.852 2.442,-0.907 5.074,-1.361 7.89,-1.361 2.004,0 3.852,0.203 5.543,0.609 1.691,0.408 3.162,0.862 4.416,1.363 1.439,0.626 2.691,1.283 3.756,1.973 l 0,-3.101 c 0,-2.066 -1.064,-3.569 -3.193,-4.509 -2.129,-0.94 -4.854,-1.409 -8.172,-1.409 -2.318,0 -4.416,0.188 -6.295,0.563 -1.878,0.376 -3.475,0.783 -4.791,1.221 -1.565,0.502 -2.944,1.066 -4.133,1.691 l -4.979,-12.117 c 1.815,-0.877 3.945,-1.659 6.388,-2.35 2.003,-0.562 4.445,-1.095 7.327,-1.597 2.88,-0.498 6.074,-0.748 9.581,-0.748 z m 8.643,35.039 c 0,-1.002 -0.252,-1.895 -0.752,-2.678 -0.502,-0.783 -1.143,-1.424 -1.926,-1.926 -0.783,-0.5 -1.691,-0.893 -2.725,-1.174 -1.033,-0.282 -2.082,-0.424 -3.146,-0.424 -2.441,0 -4.4,0.611 -5.871,1.832 -1.473,1.222 -2.207,2.71 -2.207,4.463 0,1.879 0.846,3.351 2.535,4.414 1.691,1.066 3.664,1.598 5.918,1.598 2.381,0 4.336,-0.564 5.871,-1.691 1.535,-1.127 2.303,-2.598 2.303,-4.414 z"
       id="path43"
       inkscape:connector-curvature="0"
       style="fill:#ffffff" /><path
       d="m 408.7,503.33 18.129,0 0,10.897 0.377,0 c 0.25,-2.255 1.033,-4.289 2.348,-6.106 1.127,-1.564 2.912,-2.99 5.355,-4.273 2.441,-1.283 5.918,-1.926 10.426,-1.926 l 0,20.947 c -1.064,0 -2.6,0.08 -4.602,0.235 -2.006,0.157 -3.992,0.721 -5.965,1.69 -1.973,0.973 -3.697,2.506 -5.168,4.604 -1.471,2.099 -2.207,5.058 -2.207,8.877 l 0,14.936 -18.693,0 0,-49.881 z"
       id="path45"
       inkscape:connector-curvature="0"
       style="fill:#ffffff" /><path
       d="m 500.665,542.784 c -1.189,2.255 -2.818,4.26 -4.885,6.013 -1.816,1.502 -4.213,2.865 -7.186,4.086 -2.977,1.221 -6.717,1.832 -11.227,1.832 -4.195,0 -8.064,-0.627 -11.602,-1.879 -3.539,-1.252 -6.607,-3.006 -9.205,-5.261 -2.6,-2.255 -4.635,-4.993 -6.105,-8.22 -1.473,-3.225 -2.209,-6.811 -2.209,-10.756 0,-3.818 0.689,-7.374 2.068,-10.662 1.375,-3.287 3.287,-6.105 5.729,-8.454 2.443,-2.349 5.355,-4.194 8.736,-5.542 3.383,-1.346 7.076,-2.02 11.086,-2.02 3.758,0 7.248,0.61 10.473,1.832 3.225,1.221 6.043,2.99 8.455,5.307 2.41,2.318 4.289,5.152 5.637,8.502 1.346,3.351 2.02,7.155 2.02,11.413 l 0,2.349 -34.664,0 c 0,0.627 0.172,1.425 0.518,2.395 0.344,0.973 0.924,1.912 1.738,2.818 0.812,0.909 1.846,1.691 3.1,2.349 1.252,0.657 2.818,0.986 4.697,0.986 1.627,0 3.053,-0.249 4.273,-0.751 1.221,-0.501 2.207,-1.064 2.959,-1.691 0.877,-0.688 1.629,-1.503 2.254,-2.442 l 13.34,7.796 z m -24.893,-26.866 c -1.566,0 -2.865,0.252 -3.898,0.752 -1.033,0.502 -1.865,1.159 -2.49,1.973 -0.627,0.814 -1.066,1.691 -1.314,2.63 -0.252,0.939 -0.377,1.879 -0.377,2.818 l 16.346,0 c 0,-0.939 -0.156,-1.879 -0.469,-2.818 -0.314,-0.938 -0.799,-1.815 -1.457,-2.63 -0.658,-0.813 -1.502,-1.471 -2.537,-1.973 -1.034,-0.5 -2.302,-0.752 -3.804,-0.752 z"
       id="path47"
       inkscape:connector-curvature="0"
       style="fill:#ffffff" /></g></svg>